<svg class="cm-logo-svg" id="Layer_1" data-name="Layer 1" xmlns="http://www.w3.org/2000/svg" viewBox="0 0 586.04 111.19" preserveAspectRatio="xMinYMin meet">
	<path class="cls-1" d="M289.55,21.28c-17.14,0-28.22,10.14-28.22,25.83V62c0,15.69,11.08,25.82,28.22,25.82H313.3V78.53H289.55c-5.69,0-18.94-1.61-18.94-16.55V47.11c0-14.94,13.25-16.55,18.94-16.55s19,1.61,19,16.55v2.8H278.2v9.27h39.58V47.11C317.78,31.42,306.7,21.28,289.55,21.28Z"></path><path class="cls-1" d="M576.76,21.9V62.6c0,14.94-13.25,16.55-18.94,16.55s-19-1.61-19-16.55V47.73c0-14.94,13.25-16.55,19-16.55h11V21.9h-11C540.67,21.9,529.6,32,529.6,47.73V62.6c0,15.69,11.07,25.82,28.22,25.82,7.69,0,14.15-2,18.94-5.72v8.35a10.87,10.87,0,0,1-10.86,10.86H537.55v9.28H565.9A20.17,20.17,0,0,0,586,91.05V21.9Z"></path><path class="cls-1" d="M423.35,21.9H400.72v9.28h22.63c7.07,0,14.3,2,14.3,17.14v2.11H414.38c-12.29,0-18.52,6.28-18.52,18.69,0,11.17,7.16,18.68,17.83,18.68h16.06V78.53H413.69c-7.44,0-8.56-5.9-8.56-9.41,0-6.51,1.34-9.42,9.25-9.42h23.27V87.8h9.27V48.32C446.92,25.33,432.15,21.9,423.35,21.9Z"></path><path class="cls-1" d="M340.26,74.85V0H331V74.85a13,13,0,0,0,12.95,13h8.89V78.53h-8.89A3.68,3.68,0,0,1,340.26,74.85Z"></path><path class="cls-1" d="M375,74.85V0h-9.27V74.85a13,13,0,0,0,12.95,13h8.88V78.53h-8.88A3.68,3.68,0,0,1,375,74.85Z"></path><rect class="cls-1" x="461.44" y="21.9" width="9.27" height="65.9"></rect><path class="cls-1" d="M489.46,21.9H478.62v9.28h10.84c5.7,0,19,1.61,19,16.55V87.8h9.27V47.73C517.68,32,506.6,21.9,489.46,21.9Z"></path><path class="cls-1" d="M179.55,65.94v-44h-9.27v44a21.89,21.89,0,0,0,21.86,21.87h12.32V78.53H192.14A12.61,12.61,0,0,1,179.55,65.94Z"></path><rect class="cls-1" x="238.73" y="21.9" width="9.27" height="56.63"></rect><path class="cls-1" d="M213.82,65.94v-44h-9.27v44a21.89,21.89,0,0,0,21.86,21.87h12.32V78.53H226.41A12.61,12.61,0,0,1,213.82,65.94Z"></path><polygon class="cls-2" points="119.41 21.9 92.46 48.85 92.46 21.9 65.51 21.9 38.73 48.69 38.73 21.9 0 21.9 0 60.63 26.79 60.63 26.56 60.86 26.56 87.81 53.5 87.81 80.45 60.86 80.45 87.81 107.39 87.81 146.35 48.85 146.35 21.9 119.41 21.9"></polygon>
</svg>